<?xml version="1.0" encoding="UTF-8" standalone="no"?>
<!-- Created with Inkscape (http://www.inkscape.org/) -->

<svg
   width="180mm"
   height="180mm"
   viewBox="0 0 180 180"
   version="1.1"
   id="svg18019"
   inkscape:version="1.1.2 (0a00cf5339, 2022-02-04)"
   sodipodi:docname="aiflow_white.svg"
   xmlns:inkscape="http://www.inkscape.org/namespaces/inkscape"
   xmlns:sodipodi="http://sodipodi.sourceforge.net/DTD/sodipodi-0.dtd"
   xmlns="http://www.w3.org/2000/svg"
   xmlns:svg="http://www.w3.org/2000/svg">
  <sodipodi:namedview
     id="namedview18021"
     pagecolor="#ffffff"
     bordercolor="#666666"
     borderopacity="1.0"
     inkscape:pageshadow="2"
     inkscape:pageopacity="0.0"
     inkscape:pagecheckerboard="0"
     inkscape:document-units="mm"
     showgrid="false"
     width="180mm"
     inkscape:zoom="0.37593996"
     inkscape:cx="395.00988"
     inkscape:cy="682.2898"
     inkscape:window-width="1866"
     inkscape:window-height="1016"
     inkscape:window-x="54"
     inkscape:window-y="27"
     inkscape:window-maximized="1"
     inkscape:current-layer="layer1" />
  <defs
     id="defs18016" />
  <g
     inkscape:label="Layer 1"
     inkscape:groupmode="layer"
     id="layer1">
    <circle
       style="fill:#f9f9f9;stroke:none;stroke-width:14.5042;stroke-linecap:round;fill-opacity:0.00591716"
       id="path19738"
       cx="90"
       cy="90"
       r="90" />
    <path
       id="path19636"
       style="color:#000000;fill:#000000;stroke-width:1;stroke-linecap:round;-inkscape-stroke:none"
       d="m 89.999791,8.7739285 a 9.0101078,9.0101078 0 0 0 -9.009784,9.0103035 9.0101078,9.0101078 0 0 0 5.582086,8.328173 V 153.88755 a 9.0101078,9.0101078 0 0 0 -5.582086,8.32817 9.0101078,9.0101078 0 0 0 9.009784,9.01031 9.0101078,9.0101078 0 0 0 9.010304,-9.01031 9.0101078,9.0101078 0 0 0 -5.582605,-8.32817 V 26.112405 a 9.0101078,9.0101078 0 0 0 5.582605,-8.328173 9.0101078,9.0101078 0 0 0 -9.010304,-9.0103035 z m 0,4.8369145 a 4.1731027,4.1731027 0 0 1 4.17339,4.173389 4.1731027,4.1731027 0 0 1 -4.17339,4.17287 4.1731027,4.1731027 0 0 1 -4.172873,-4.17287 4.1731027,4.1731027 0 0 1 4.172873,-4.173389 z m -27.803988,0.661976 a 9.0101078,9.0101078 0 0 0 -3.279902,0.684194 9.0101078,9.0101078 0 0 0 -4.876188,11.772408 9.0101078,9.0101078 0 0 0 7.813992,5.460648 v 24.905457 c -3e-6,2.69577 -2.062065,4.75784 -4.757848,4.757851 H 32.26533 A 9.0101078,9.0101078 0 0 0 26.729236,54.0399 9.0101078,9.0101078 0 0 0 23.44985,53.355704 a 9.0101078,9.0101078 0 0 0 -8.493022,5.560382 9.0101078,9.0101078 0 0 0 4.876187,11.772408 9.0101078,9.0101078 0 0 0 9.93686,-2.129583 3.42685,3.42685 0 0 0 0.552424,0.148309 h 26.773558 c 6.374161,-8e-6 11.61117,-5.237522 11.611178,-11.611694 V 30.322484 A 3.42685,3.42685 0 0 0 68.56389,29.78815 9.0101078,9.0101078 0 0 0 70.688309,19.833202 9.0101078,9.0101078 0 0 0 62.195803,14.272819 Z m 55.608497,0 a 9.0101078,9.0101078 0 0 0 -8.49303,5.560383 9.0101078,9.0101078 0 0 0 2.12959,9.937377 3.42685,3.42685 0 0 0 -0.1478,0.551905 v 26.773042 c 1e-5,6.374161 5.23701,11.611686 11.61118,11.611694 h 26.77356 a 3.42685,3.42685 0 0 0 0.55242,-0.148309 9.0101078,9.0101078 0 0 0 9.93686,2.129583 9.0101078,9.0101078 0 0 0 4.87619,-11.772408 9.0101078,9.0101078 0 0 0 -8.49302,-5.560382 9.0101078,9.0101078 0 0 0 -3.27938,0.684196 9.0101078,9.0101078 0 0 0 -5.46014,7.813477 h -24.90649 c -2.69579,-1.1e-5 -4.75784,-2.062081 -4.75785,-4.757851 V 32.190069 a 9.0101078,9.0101078 0 0 0 7.814,-5.460648 9.0101078,9.0101078 0 0 0 -4.87671,-11.772408 9.0101078,9.0101078 0 0 0 -3.27938,-0.684194 z m -55.674127,4.841563 a 4.1731027,4.1731027 0 0 1 4.089676,2.569869 4.1731027,4.1731027 0 0 1 -2.258777,5.452382 4.1731027,4.1731027 0 0 1 -5.452383,-2.258261 4.1731027,4.1731027 0 0 1 2.258261,-5.452898 4.1731027,4.1731027 0 0 1 1.363223,-0.311092 z m 55.271567,0 a 4.1731027,4.1731027 0 0 1 1.83089,0.311092 4.1731027,4.1731027 0 0 1 2.25878,5.452898 4.1731027,4.1731027 0 0 1 -5.45238,2.258261 4.1731027,4.1731027 0 0 1 -2.25878,-5.452382 4.1731027,4.1731027 0 0 1 3.62149,-2.569869 z M 38.598794,29.931811 a 9.0101078,9.0101078 0 0 0 -6.034257,2.632913 9.0101078,9.0101078 0 0 0 0,12.741857 9.0101078,9.0101078 0 0 0 9.837126,1.940452 L 53.32606,58.171946 a 3.42685,3.42685 0 0 0 4.845701,0 3.42685,3.42685 0 0 0 0,-4.845698 L 47.237027,42.390997 a 9.0101078,9.0101078 0 0 0 -1.930115,-9.826789 9.0101078,9.0101078 0 0 0 -6.708118,-2.632397 z m 102.128646,0 a 9.0101078,9.0101078 0 0 0 -6.03425,2.632397 9.0101078,9.0101078 0 0 0 -1.94097,9.837643 l -10.92388,10.924397 a 3.42685,3.42685 0 0 0 0,4.845698 3.42685,3.42685 0 0 0 4.8457,0 l 10.92388,-10.924397 a 9.0101078,9.0101078 0 0 0 9.83764,-1.940968 9.0101078,9.0101078 0 0 0 0,-12.742373 9.0101078,9.0101078 0 0 0 -6.70812,-2.632397 z M 38.935725,34.762523 a 4.1731027,4.1731027 0 0 1 2.950725,1.222147 4.1731027,4.1731027 0 0 1 0,5.901965 4.1731027,4.1731027 0 0 1 -5.901449,0 4.1731027,4.1731027 0 0 1 -5.29e-4,-5.901965 4.1731027,4.1731027 0 0 1 2.951239,-1.222147 z m 102.128645,0 a 4.1731027,4.1731027 0 0 1 2.95073,1.222147 4.1731027,4.1731027 0 0 1 0,5.901965 4.1731027,4.1731027 0 0 1 -5.90145,-5.29e-4 4.1731027,4.1731027 0 0 1 0,-5.901449 4.1731027,4.1731027 0 0 1 2.95072,-1.222147 z m -63.695332,4.221964 a 3.42685,3.42685 0 0 0 -3.425632,3.427698 v 26.771491 c -2e-6,2.695771 -2.064131,4.759907 -4.759915,4.759918 H 42.411998 a 3.42685,3.42685 0 0 0 -3.427696,3.425629 3.42685,3.42685 0 0 0 3.427696,3.427698 h 26.771493 c 6.374159,-1e-5 11.613238,-5.239072 11.613245,-11.613245 V 42.412185 a 3.42685,3.42685 0 0 0 -3.427698,-3.427698 z m 25.262022,0 a 3.42685,3.42685 0 0 0 -3.427695,3.427698 v 26.771491 c 8e-6,6.374162 5.239075,11.613235 11.613245,11.613245 h 26.77149 a 3.42685,3.42685 0 0 0 3.4277,-3.427698 3.42685,3.42685 0 0 0 -3.4277,-3.425629 h -26.77149 c -2.69579,-1.1e-5 -4.75991,-2.064136 -4.75992,-4.759918 V 42.412185 a 3.42685,3.42685 0 0 0 -3.42563,-3.427698 z M 23.047289,58.197785 a 4.1731027,4.1731027 0 0 1 1.830896,0.311092 4.1731027,4.1731027 0 0 1 2.258261,5.45238 4.1731027,4.1731027 0 0 1 -5.45238,2.258261 4.1731027,4.1731027 0 0 1 -2.258261,-5.45238 4.1731027,4.1731027 0 0 1 3.621484,-2.569353 z m 133.437331,0 a 4.1731027,4.1731027 0 0 1 4.08967,2.569353 4.1731027,4.1731027 0 0 1 -2.25826,5.45238 4.1731027,4.1731027 0 0 1 -5.45238,-2.258777 4.1731027,4.1731027 0 0 1 2.25826,-5.451864 4.1731027,4.1731027 0 0 1 1.36271,-0.311092 z M 17.784044,80.989676 a 9.0101078,9.0101078 0 0 0 -9.0103015,9.010303 9.0101078,9.0101078 0 0 0 9.0103015,9.010301 9.0101078,9.0101078 0 0 0 8.313706,-5.582605 h 38.146508 a 3.42685,3.42685 0 0 0 3.425629,-3.427696 3.42685,3.42685 0 0 0 -3.425629,-3.427698 H 26.09775 a 9.0101078,9.0101078 0 0 0 -8.313706,-5.582605 z m 144.432006,0 a 9.0101078,9.0101078 0 0 0 -8.32869,5.582605 h -38.13152 a 3.42685,3.42685 0 0 0 -3.42563,3.427698 3.42685,3.42685 0 0 0 3.42563,3.427696 h 38.13152 a 9.0101078,9.0101078 0 0 0 8.32869,5.582605 9.0101078,9.0101078 0 0 0 9.00979,-9.010301 9.0101078,9.0101078 0 0 0 -9.00979,-9.010303 z m -144.432006,4.83743 a 4.1731027,4.1731027 0 0 1 4.172874,4.172873 4.1731027,4.1731027 0 0 1 -4.172874,4.172871 4.1731027,4.1731027 0 0 1 -4.173386,-4.172871 4.1731027,4.1731027 0 0 1 4.173386,-4.172873 z m 144.432006,0 a 4.1731027,4.1731027 0 0 1 4.17288,4.172873 4.1731027,4.1731027 0 0 1 -4.17288,4.172871 4.1731027,4.1731027 0 0 1 -4.17338,-4.172871 4.1731027,4.1731027 0 0 1 4.17338,-4.172873 z M 42.411998,99.203034 a 3.42685,3.42685 0 0 0 -3.427696,3.427696 3.42685,3.42685 0 0 0 3.427696,3.42615 h 26.771493 c 2.695784,10e-6 4.759913,2.06363 4.759915,4.7594 v 26.77149 a 3.42685,3.42685 0 0 0 3.425632,3.4277 3.42685,3.42685 0 0 0 3.427698,-3.4277 v -26.77149 c -7e-6,-6.37417 -5.239086,-11.613228 -11.613245,-11.613246 z m 68.404612,0 c -6.37417,1.8e-5 -11.613237,5.239076 -11.613245,11.613246 v 26.77149 a 3.42685,3.42685 0 0 0 3.427695,3.4277 3.42685,3.42685 0 0 0 3.42563,-3.4277 v -26.77149 c 1e-5,-2.69579 2.06413,-4.75939 4.75992,-4.7594 h 26.77149 a 3.42685,3.42685 0 0 0 3.4277,-3.42615 3.42685,3.42685 0 0 0 -3.4277,-3.427696 z m -87.704207,9.424226 a 9.0101078,9.0101078 0 0 0 -3.279388,0.6842 9.0101078,9.0101078 0 0 0 -4.876187,11.77241 9.0101078,9.0101078 0 0 0 11.772408,4.87619 9.0101078,9.0101078 0 0 0 5.536094,-7.81348 h 24.830527 c 2.695783,1e-5 4.757845,2.06206 4.757848,4.75785 v 24.92974 a 9.0101078,9.0101078 0 0 0 -7.813992,5.43636 9.0101078,9.0101078 0 0 0 4.876188,11.77241 9.0101078,9.0101078 0 0 0 11.772408,-4.87619 9.0101078,9.0101078 0 0 0 -2.124419,-9.95494 3.42685,3.42685 0 0 0 0.143145,-0.53434 v -26.77304 c -8e-6,-6.37417 -5.237017,-11.61168 -11.611178,-11.61169 H 30.322299 a 3.42685,3.42685 0 0 0 -0.562758,0.15089 9.0101078,9.0101078 0 0 0 -6.647138,-2.81637 z m 133.774777,0 a 9.0101078,9.0101078 0 0 0 -6.64662,2.81637 3.42685,3.42685 0 0 0 -0.56276,-0.15089 h -26.77356 c -6.37417,1e-5 -11.61117,5.23753 -11.61118,11.61169 v 26.77304 a 3.42685,3.42685 0 0 0 0.1478,0.55242 9.0101078,9.0101078 0 0 0 -2.12959,9.93686 9.0101078,9.0101078 0 0 0 11.77241,4.87619 9.0101078,9.0101078 0 0 0 4.87671,-11.77241 9.0101078,9.0101078 0 0 0 -7.814,-5.43636 v -24.92974 c 1e-5,-2.69577 2.06206,-4.75784 4.75785,-4.75785 h 24.90649 a 9.0101078,9.0101078 0 0 0 5.46014,7.81348 9.0101078,9.0101078 0 0 0 11.7724,-4.87619 9.0101078,9.0101078 0 0 0 -4.87619,-11.77241 9.0101078,9.0101078 0 0 0 -3.2799,-0.6842 z m -133.839891,4.84209 a 4.1731027,4.1731027 0 0 1 4.089157,2.56935 4.1731027,4.1731027 0 0 1 -2.258261,5.45238 4.1731027,4.1731027 0 0 1 -5.45238,-2.25826 4.1731027,4.1731027 0 0 1 2.258261,-5.45238 4.1731027,4.1731027 0 0 1 1.363223,-0.31109 z m 133.437331,0 a 4.1731027,4.1731027 0 0 1 1.83141,0.31109 4.1731027,4.1731027 0 0 1 2.25826,5.45238 4.1731027,4.1731027 0 0 1 -5.45238,2.25826 4.1731027,4.1731027 0 0 1 -2.25877,-5.45238 4.1731027,4.1731027 0 0 1 3.62148,-2.56935 z m -100.736485,7.3551 a 3.42685,3.42685 0 0 0 -2.422075,1.00356 l -10.947651,10.94817 a 9.0101078,9.0101078 0 0 0 -3.779615,-0.71572 9.0101078,9.0101078 0 0 0 -6.034257,2.63291 9.0101078,9.0101078 0 0 0 0,12.74186 9.0101078,9.0101078 0 0 0 12.742375,5.3e-4 9.0101078,9.0101078 0 0 0 1.930115,-9.82679 l 10.934734,-10.93525 a 3.42685,3.42685 0 0 0 0,-4.8457 3.42685,3.42685 0 0 0 -2.423626,-1.00355 z m 68.507965,0.006 a 3.42685,3.42685 0 0 0 -2.42208,1.00407 3.42685,3.42685 0 0 0 0,4.8457 l 10.9182,10.9182 a 9.0101078,9.0101078 0 0 0 1.94097,9.83764 9.0101078,9.0101078 0 0 0 12.74237,0 9.0101078,9.0101078 0 0 0 0,-12.74237 9.0101078,9.0101078 0 0 0 -6.70812,-2.63291 9.0101078,9.0101078 0 0 0 -3.11143,0.71003 l -10.93629,-10.93629 a 3.42685,3.42685 0 0 0 -2.42362,-1.00407 z m -85.320375,16.06104 a 4.1731027,4.1731027 0 0 1 2.950725,1.22215 4.1731027,4.1731027 0 0 1 0,5.90196 4.1731027,4.1731027 0 0 1 -5.901449,0 4.1731027,4.1731027 0 0 1 0,-5.90196 4.1731027,4.1731027 0 0 1 2.950724,-1.22215 z m 102.128645,0 a 4.1731027,4.1731027 0 0 1 2.95073,1.22215 4.1731027,4.1731027 0 0 1 0,5.90196 4.1731027,4.1731027 0 0 1 -5.90145,0 4.1731027,4.1731027 0 0 1 0,-5.90196 4.1731027,4.1731027 0 0 1 2.95072,-1.22215 z m -78.934197,15.66106 a 4.1731027,4.1731027 0 0 1 1.830899,0.31109 4.1731027,4.1731027 0 0 1 2.258258,5.45238 4.1731027,4.1731027 0 0 1 -5.45238,2.25826 4.1731027,4.1731027 0 0 1 -2.258261,-5.45187 4.1731027,4.1731027 0 0 1 3.621484,-2.56986 z m 55.271567,0 a 4.1731027,4.1731027 0 0 1 4.08967,2.56986 4.1731027,4.1731027 0 0 1 -2.25878,5.45239 4.1731027,4.1731027 0 0 1 -5.45238,-2.25878 4.1731027,4.1731027 0 0 1 2.25826,-5.45238 4.1731027,4.1731027 0 0 1 1.36323,-0.31109 z m -27.401949,5.49062 a 4.1731027,4.1731027 0 0 1 4.17339,4.17287 4.1731027,4.1731027 0 0 1 -4.17339,4.17339 4.1731027,4.1731027 0 0 1 -4.172873,-4.17339 4.1731027,4.1731027 0 0 1 4.172873,-4.17287 z" />
  </g>
</svg>
